<?xml version="1.0" standalone="no"?>
<!DOCTYPE svg PUBLIC "-//W3C//DTD SVG 20010904//EN"
 "http://www.w3.org/TR/2001/REC-SVG-20010904/DTD/svg10.dtd">
<svg version="1.0" xmlns="http://www.w3.org/2000/svg"
 width="880.000000pt" height="880.000000pt" viewBox="0 0 880.000000 880.000000"
 preserveAspectRatio="xMidYMid meet">
<metadata>
Created by potrace 1.14, written by Peter Selinger 2001-2017
</metadata>
<g transform="translate(0.000000,880.000000) scale(0.100000,-0.100000)"
fill="#000000" stroke="none">
<path d="M5286 7871 c-38 -38 -66 -73 -62 -79 17 -28 1388 -1387 1397 -1384 5
1 40 32 76 68 l66 65 -49 50 c-167 170 -1346 1344 -1352 1347 -4 1 -38 -29
-76 -67z"/>
<path d="M4862 7898 c-24 -4 -58 -16 -75 -27 -18 -11 -376 -364 -796 -785
l-765 -765 56 -83 c115 -172 222 -374 298 -560 24 -59 45 -106 46 -105 2 1
289 287 639 636 l635 634 1293 -1291 c710 -710 1308 -1303 1326 -1317 117 -85
296 -93 433 -18 85 46 168 154 193 248 23 90 10 206 -34 295 -17 33 -438 461
-1549 1573 -840 840 -1540 1534 -1557 1543 -46 23 -96 31 -143 22z"/>
<path d="M2474 6758 c-40 -32 -47 -57 -50 -168 -6 -271 -18 -422 -50 -619 -49
-314 -199 -662 -383 -890 -66 -82 -221 -245 -226 -239 -2 2 -5 27 -9 56 -16
132 -44 234 -102 360 -57 126 -241 390 -307 442 -80 63 -167 58 -202 -10 -20
-38 -19 -56 5 -143 11 -39 23 -92 26 -117 3 -25 8 -48 10 -52 9 -14 4 -247 -6
-309 -16 -100 -19 -113 -41 -185 -43 -138 -103 -250 -216 -402 -162 -217 -247
-376 -287 -534 -85 -335 74 -687 442 -975 176 -138 545 -346 637 -358 51 -7
95 18 119 69 32 69 -2 123 -134 216 -188 132 -292 295 -294 465 -1 91 13 125
103 252 98 139 234 262 546 493 99 74 216 164 260 201 142 117 276 265 341
376 26 46 27 46 36 22 9 -24 25 -97 33 -154 3 -16 9 -55 14 -85 15 -84 6 -274
-17 -355 -63 -229 -203 -402 -392 -485 -121 -53 -180 -111 -180 -177 0 -73 47
-123 146 -157 38 -13 114 -40 169 -59 108 -39 108 -39 270 -68 178 -32 380
-22 530 27 126 42 275 133 363 223 26 27 42 37 45 28 10 -27 -1 -185 -18 -252
-31 -122 -66 -185 -179 -319 -47 -56 -54 -113 -21 -158 23 -31 36 -38 83 -44
41 -5 66 8 162 83 343 265 535 558 579 878 15 112 6 336 -17 442 -52 229 -165
473 -334 719 -65 96 -116 116 -184 75 -35 -22 -75 -112 -114 -256 -12 -43 -23
-82 -25 -85 -2 -4 -6 -18 -9 -33 -8 -44 -75 -178 -132 -264 -62 -93 -81 -111
-58 -56 9 20 17 44 19 54 2 9 13 49 25 89 12 40 23 80 25 89 2 9 14 70 28 136
38 183 49 343 31 480 -4 28 -7 57 -6 65 0 8 -4 33 -8 55 -5 22 -11 56 -14 75
-9 52 -34 145 -64 235 -74 221 -194 458 -364 713 -37 57 -73 108 -78 115 -6 7
-24 30 -40 52 -16 22 -33 45 -38 50 -4 6 -23 30 -42 55 -35 45 -44 55 -120
145 -61 72 -161 175 -180 185 -27 14 -80 8 -106 -12z"/>
<path d="M4875 6479 c-20 -6 -213 -191 -605 -583 l-574 -575 17 -89 c9 -49 17
-100 17 -114 0 -25 1 -26 54 -21 72 7 153 -17 197 -59 89 -85 218 -265 304
-422 99 -183 181 -447 201 -646 3 -36 8 -74 9 -85 2 -11 4 -23 4 -27 1 -5 202
-8 447 -8 l446 0 29 -29 c24 -24 29 -38 29 -78 0 -26 1 -372 1 -767 0 -797 -2
-775 62 -795 20 -6 310 -9 782 -8 l750 2 47 23 c58 29 111 80 141 135 l22 42
3 880 c1 484 0 889 -2 900 -6 22 -2281 2301 -2318 2321 -26 15 -23 15 -63 3z"/>
<path d="M6738 6421 c-38 -37 -68 -70 -68 -72 0 -3 1357 -1362 1396 -1398 5
-5 143 130 144 141 0 9 -1391 1398 -1399 1397 -3 0 -36 -31 -73 -68z"/>
<path d="M4297 3097 c-110 -189 -280 -369 -495 -523 -132 -94 -160 -106 -247
-106 -145 0 -273 89 -318 221 -26 78 -7 198 44 272 l18 25 -92 -19 c-161 -33
-442 -28 -597 12 l-71 18 3 -311 c3 -298 4 -313 25 -352 30 -55 84 -108 141
-136 l47 -23 767 0 768 0 27 28 28 27 3 475 c1 261 1 475 0 475 -2 -1 -25 -38
-51 -83z"/>
<path d="M6692 2078 c-140 -16 -256 -73 -357 -174 -81 -81 -136 -170 -168
-269 -29 -92 -31 -279 -3 -369 55 -182 168 -319 331 -401 98 -49 121 -55 240
-60 152 -8 302 44 415 144 l54 48 -30 29 c-52 50 -135 118 -161 132 -31 17
-59 12 -138 -22 -116 -50 -230 -27 -325 64 -85 82 -104 125 -105 235 0 82 3
95 32 151 83 158 259 227 410 160 70 -31 101 -37 128 -23 18 8 79 58 168 136
l27 24 -37 35 c-94 86 -209 143 -318 157 -77 10 -100 11 -163 3z"/>
<path d="M3635 2072 c-16 -2 -54 -10 -83 -18 -216 -61 -373 -217 -427 -425
-17 -64 -25 -251 -13 -314 31 -164 110 -294 235 -387 110 -81 226 -118 371
-118 92 0 227 23 237 41 4 5 12 9 20 9 25 0 129 67 181 117 83 79 153 200 169
292 3 17 8 46 11 64 8 42 7 169 -1 221 -13 79 -45 172 -82 235 -71 120 -221
230 -361 266 -57 15 -193 24 -257 17z m225 -332 c90 -46 152 -133 168 -232 10
-64 7 -94 -15 -167 -23 -74 -106 -160 -182 -188 -198 -74 -413 80 -414 295 0
74 16 127 54 185 35 53 86 96 144 120 59 25 185 18 245 -13z"/>
<path d="M623 2050 c-12 -5 -26 -18 -32 -29 -10 -18 -13 -329 -11 -1027 l0
-172 155 0 c108 0 155 4 156 12 0 6 2 112 2 236 l2 225 45 1 c25 0 51 -2 58
-4 9 -3 12 -60 12 -237 l0 -233 158 1 157 2 2 220 c0 121 2 225 2 231 1 7 69
10 205 11 200 0 206 1 258 26 99 49 166 135 192 247 15 63 15 178 1 235 -24
94 -108 199 -190 237 l-50 23 -550 2 c-311 1 -559 -2 -572 -7z m387 -379 l0
-100 -51 3 c-27 2 -53 7 -57 10 -3 4 -7 47 -8 96 l-2 90 59 0 59 0 0 -99z
m680 89 c10 -5 24 -26 30 -46 16 -46 -1 -108 -33 -126 -32 -18 -334 -19 -349
-1 -8 10 -14 111 -9 171 1 15 332 17 361 2z"/>
<path d="M2079 2048 c-38 -30 -38 -43 -39 -640 l0 -585 157 1 158 1 2 205 c1
113 2 217 2 231 1 26 3 27 55 26 48 -1 56 -5 74 -32 11 -16 55 -84 98 -150
152 -235 164 -253 180 -266 22 -18 357 -23 347 -5 -3 6 -75 113 -160 238
l-154 227 40 20 c58 30 118 97 153 171 51 106 48 268 -7 383 -29 61 -99 132
-157 158 -52 24 -59 24 -393 27 -261 2 -344 -1 -356 -10z m636 -284 c22 -9 45
-57 45 -97 0 -35 -36 -86 -62 -88 -73 -7 -313 -3 -325 6 -14 10 -17 46 -14
163 1 22 2 22 170 22 93 0 177 -3 186 -6z"/>
<path d="M4353 2045 c-11 -8 -25 -27 -30 -42 -7 -22 -9 -165 -4 -218 1 -7 58
-11 162 -12 119 -1 164 -5 170 -14 4 -7 7 -220 7 -473 l0 -461 151 -1 c107 -2
151 1 152 10 1 6 2 220 2 476 l2 464 170 -1 171 -1 -1 144 0 144 -465 0 c-395
0 -469 -2 -487 -15z"/>
<path d="M5393 2050 c-12 -5 -26 -18 -32 -29 -8 -13 -11 -211 -11 -609 l0
-589 415 0 c228 0 415 3 415 6 0 4 -16 61 -34 126 -35 120 -55 153 -95 156 -9
1 -96 2 -193 3 -97 1 -180 5 -184 9 -8 8 -13 155 -6 175 3 9 50 12 189 12
l184 0 -6 23 c-39 130 -69 207 -86 223 -17 15 -38 18 -149 18 -72 0 -130 3
-131 6 -1 3 -2 47 -4 98 l-2 92 193 0 c123 0 202 4 218 11 14 7 32 28 40 50
14 35 66 211 66 223 0 10 -763 5 -787 -4z"/>
<path d="M7279 2041 c-23 -18 -24 -27 -27 -144 l-4 -124 162 0 c128 0 164 -3
171 -14 5 -8 9 -221 9 -475 l0 -461 149 0 c128 0 150 3 153 16 2 9 4 222 3
474 0 400 2 457 15 458 8 0 85 1 170 2 l155 2 1 143 0 142 -467 0 c-444 0
-468 -1 -490 -19z"/>
</g>
</svg>
